<mxfile host="app.diagrams.net" modified="2024-06-01T16:01:23.681Z" agent="Mozilla/5.0 (X11; Linux x86_64) AppleWebKit/537.36 (KHTML, like Gecko) Chrome/125.0.0.0 Safari/537.36" version="24.4.13" etag="-mrt8yriqoDfHbh_LNYJ" type="github">
  <diagram name="PÃ¡gina-1" id="g2d0MGc6nuiXspxXwqCp">
    <mxGraphModel>
      <root>
        <mxCell id="0" />
        <mxCell id="1" parent="0" />
      </root>
    </mxGraphModel>
  </diagram>
</mxfile>
